<svg width="163" height="42" viewBox="0 0 168 44" fill="none" xmlns="http://www.w3.org/2000/svg">
<path d="M32.5 6.59995L5.5 6.09995C2.5 5.99995 0 8.49995 0 11.4999V32.9999C0 35.2999 1.9 37.1999 4.2 37.1999H30.4C32.8 37.1999 34.7 35.2999 34.7 32.8999V22.4999C34.7 20.3999 33 18.7999 31 18.7999H17.4C16.7 18.7999 16.2 19.2999 16.2 19.9999V24.2999C16.2 25.0999 16.9 25.7999 17.7 25.7999H23.5V30.0999H10.7V13.5999H34.7V8.79995C34.7 7.59995 33.7 6.59995 32.5 6.59995Z" fill="white"/>
<path d="M43.1 6.09998H45.8C48.1 6.09998 50 7.99998 50 10.3V29.6H63V10.2C63 7.89998 64.8 6.09998 67.1 6.09998H70.2C72.1 6.09998 73.7 7.69998 73.7 9.59998V33.1C73.7 35.3 71.9 37.1 69.7 37.1H43.2C40.9 37.1 39.1 35.3 39.1 33V9.99998C39.1 7.89998 40.9 6.09998 43.1 6.09998Z" fill="white"/>
<path d="M164.9 6.09998H138.3C135.3 6.09998 132.9 8.49998 132.9 11.5V32C132.9 34.8 135.2 37.1 138 37.1H164.8C166.1 37.1 167.2 36 167.2 34.7V30.9C167.2 30.3 166.7 29.8 166.1 29.8H143.4V25.6H164.1C164.7 25.6 165.2 25.1 165.2 24.5V19.1C165.2 18.5 164.7 18 164.1 18H143.4V13.6H166.1C166.7 13.6 167.2 13.1 167.2 12.5V8.49998C167.3 7.19998 166.2 6.09998 164.9 6.09998Z" fill="white"/>
<path d="M82.2 6.09998H85.5C87.5 6.09998 89.2 7.79998 89.2 9.79998V34.3C89.2 35.9 87.9 37.2 86.3 37.2H81.9C80 37.2 78.5 35.7 78.5 33.8V9.89997C78.5 7.79997 80.2 6.09998 82.2 6.09998Z" fill="white"/>
<path d="M112.9 29.8H90.9V37.1H118.8C124 37.1 128.2 32.9 128.2 27.7V17.5C128.2 11.2 123.1 6.09998 116.8 6.09998H99.7C96.1 6.09998 93.2 8.99998 93.3 12.6L93.5 27.6H105V13.5H112.1C114.5 13.5 116.4 15.4 116.4 17.8V26.2C116.4 28.2 114.8 29.8 112.9 29.8Z" fill="white"/>
<path opacity="0.9" d="M112.9 29.8H90.9V37.1H118.8C124 37.1 128.2 32.9 128.2 27.7V17.5C128.2 11.2 123.1 6.09998 116.8 6.09998H99.7C96.1 6.09998 93.2 8.99998 93.3 12.6L93.5 27.6H105V13.5H112.1C114.5 13.5 116.4 15.4 116.4 17.8V26.2C116.4 28.2 114.8 29.8 112.9 29.8Z" fill="#5C67B0"/>
<path opacity="0.9" d="M82.2 6.09998H85.5C87.5 6.09998 89.2 7.79998 89.2 9.79998V34.3C89.2 35.9 87.9 37.2 86.3 37.2H81.9C80 37.2 78.5 35.7 78.5 33.8V9.89997C78.5 7.79997 80.2 6.09998 82.2 6.09998Z" fill="#5C67B0"/>
<path d="M108.3 0H103.2V5.1H108.3V0Z" fill="#5C67B0"/>
<path d="M62.5 38.7H57.4V43.8H62.5V38.7Z" fill="#5C67B0"/>
<path d="M62.5 38.7H57.4V43.8H62.5V38.7Z" fill="#5C67B0"/>
<path d="M55 38.7H49.9V43.8H55V38.7Z" fill="#5C67B0"/>
<path d="M55 38.7H49.9V43.8H55V38.7Z" fill="#5C67B0"/>
<path d="M115.8 0H110.7V5.1H115.8V0Z" fill="#5C67B0"/>
<path opacity="0.9" d="M33.8 37.1H32H26.6V29.6999H39.2V20.1C39.2 18.8 40.2 17.8 41.5 17.8H47.7C49 17.8 50 18.8 50 20.1V29.6H63V20.3C63 18.8 64.2 17.7 65.6 17.7H71C72.5 17.7 73.7 18.9 73.7 20.4V33.4C73.7 35.4 72 37.1 70 37.1H43.2H42.6C41 37 39.2 35.3 39.2 33.3V34.5C39.2 35.9 38.1 37.1 36.6 37.1H33.8V37.1Z" fill="#5C67B0"/>
<path d="M108.3 0H103.2V5.1H108.3V0Z" fill="#5C67B0"/>
</svg>
