<?xml version="1.0" encoding="utf-8"?>
<!-- Generator: Adobe Illustrator 23.0.5, SVG Export Plug-In . SVG Version: 6.00 Build 0)  -->
<svg version="1.1" id="Layer_1" xmlns="http://www.w3.org/2000/svg" xmlns:xlink="http://www.w3.org/1999/xlink" x="0px" y="0px"
	 viewBox="0 0 182.3 57.2" style="enable-background:new 0 0 182.3 57.2;" xml:space="preserve">
<style type="text/css">
	.st0{fill:#161C32;}
	.st1{opacity:0.9;fill:#5C67B0;}
	.st2{fill:#5C67B0;}
</style>
<g>
	<g>
		<g>
			<path class="st0" d="M40.5,14l-27-0.5c-3-0.1-5.5,2.4-5.5,5.4v21.5c0,2.3,1.9,4.2,4.2,4.2h26.2c2.4,0,4.3-1.9,4.3-4.3V29.9
				c0-2.1-1.7-3.7-3.7-3.7H25.4c-0.7,0-1.2,0.5-1.2,1.2v4.3c0,0.8,0.7,1.5,1.5,1.5h5.8v4.3H18.7V21h24v-4.8C42.7,15,41.7,14,40.5,14
				z"/>
			<path class="st0" d="M51.1,13.5h2.7c2.3,0,4.2,1.9,4.2,4.2V37H71V17.6c0-2.3,1.8-4.1,4.1-4.1h3.1c1.9,0,3.5,1.6,3.5,3.5v23.5
				c0,2.2-1.8,4-4,4H51.2c-2.3,0-4.1-1.8-4.1-4.1v-23C47.1,15.3,48.9,13.5,51.1,13.5z"/>
			<path class="st0" d="M172.9,13.5h-26.6c-3,0-5.4,2.4-5.4,5.4v20.5c0,2.8,2.3,5.1,5.1,5.1h26.8c1.3,0,2.4-1.1,2.4-2.4v-3.8
				c0-0.6-0.5-1.1-1.1-1.1h-22.7V33h20.7c0.6,0,1.1-0.5,1.1-1.1v-5.4c0-0.6-0.5-1.1-1.1-1.1h-20.7V21h22.7c0.6,0,1.1-0.5,1.1-1.1v-4
				C175.3,14.6,174.2,13.5,172.9,13.5z"/>
			<path class="st0" d="M90.2,13.5h3.3c2,0,3.7,1.7,3.7,3.7v24.5c0,1.6-1.3,2.9-2.9,2.9h-4.4c-1.9,0-3.4-1.5-3.4-3.4V17.3
				C86.5,15.2,88.2,13.5,90.2,13.5z"/>
			<path class="st0" d="M120.9,37.2h-22v7.3h27.9c5.2,0,9.4-4.2,9.4-9.4V24.9c0-6.3-5.1-11.4-11.4-11.4h-17.1
				c-3.6,0-6.5,2.9-6.4,6.5l0.2,15H113V20.9h7.1c2.4,0,4.3,1.9,4.3,4.3v8.4C124.4,35.6,122.8,37.2,120.9,37.2z"/>
		</g>
	</g>
	<g>
		<g>
			<path class="st1" d="M120.9,37.2h-22v7.3h27.9c5.2,0,9.4-4.2,9.4-9.4V24.9c0-6.3-5.1-11.4-11.4-11.4h-17.1
				c-3.6,0-6.5,2.9-6.4,6.5l0.2,15H113V20.9h7.1c2.4,0,4.3,1.9,4.3,4.3v8.4C124.4,35.6,122.8,37.2,120.9,37.2z"/>
			<path class="st1" d="M90.2,13.5h3.3c2,0,3.7,1.7,3.7,3.7v24.5c0,1.6-1.3,2.9-2.9,2.9h-4.4c-1.9,0-3.4-1.5-3.4-3.4V17.3
				C86.5,15.2,88.2,13.5,90.2,13.5z"/>
			<rect x="111.2" y="7.4" class="st2" width="5.1" height="5.1"/>
			<rect x="65.4" y="46.1" class="st2" width="5.1" height="5.1"/>
			<rect x="65.4" y="46.1" class="st2" width="5.1" height="5.1"/>
			<rect x="57.9" y="46.1" class="st2" width="5.1" height="5.1"/>
			<rect x="57.9" y="46.1" class="st2" width="5.1" height="5.1"/>
			<rect x="118.7" y="7.4" class="st2" width="5.1" height="5.1"/>
			<path class="st1" d="M41.8,44.5H40h-5.4v-7.4h12.6v-9.6c0-1.3,1-2.3,2.3-2.3h6.2c1.3,0,2.3,1,2.3,2.3V37H71v-9.3
				c0-1.5,1.2-2.6,2.6-2.6H79c1.5,0,2.7,1.2,2.7,2.7v13c0,2-1.7,3.7-3.7,3.7H51.2l-0.6,0c-1.6-0.1-3.4-1.8-3.4-3.8l0,1.2
				c0,1.4-1.1,2.6-2.6,2.6H41.8z"/>
			<rect x="111.2" y="7.4" class="st2" width="5.1" height="5.1"/>
		</g>
	</g>
</g>
</svg>
